<svg xmlns="http://www.w3.org/2000/svg" xmlns:xlink="http://www.w3.org/1999/xlink" width="500" zoomAndPan="magnify" viewBox="0 0 375 374.999991" height="500" preserveAspectRatio="xMidYMid meet" version="1.0"><rect x="-37.5" width="450" fill="#ffffff" y="-37.499999" height="449.999989" fill-opacity="1"/><rect x="-37.5" width="450" fill="#ffffff" y="-37.499999" height="449.999989" fill-opacity="1"/><path stroke-linecap="butt" transform="matrix(0.841751, 0, 0, 0.841751, -14.941069, -10.016834)" fill-opacity="1" fill="#4267b2" fill-rule="nonzero" stroke-linejoin="miter" d="M 462.697796 234.598973 C 462.697796 238.237223 462.609624 241.870833 462.43328 245.504443 C 462.252296 249.133412 461.98778 252.762381 461.630452 256.377428 C 461.273124 259.997116 460.827624 263.607522 460.293952 267.204007 C 459.76028 270.800492 459.138436 274.383054 458.428421 277.947055 C 457.723046 281.515696 456.924858 285.061133 456.043139 288.588009 C 455.15678 292.119525 454.186889 295.623197 453.133467 299.099025 C 452.075404 302.579494 450.938451 306.03212 449.713326 309.456901 C 448.488201 312.881683 447.179545 316.27398 445.787357 319.633793 C 444.395169 322.993605 442.919451 326.316293 441.364841 329.601856 C 439.810232 332.892059 438.176731 336.135857 436.464341 339.342529 C 434.747309 342.549201 432.956028 345.714107 431.085856 348.832608 C 429.215684 351.951108 427.271262 355.023202 425.25259 358.04889 C 423.233918 361.069937 421.140996 364.044578 418.973823 366.963531 C 416.806651 369.887125 414.56987 372.750391 412.263479 375.56261 C 409.957088 378.374829 407.581088 381.12672 405.140119 383.818283 C 402.69915 386.514486 400.188572 389.145721 397.617665 391.721268 C 395.046759 394.292174 392.415524 396.798112 389.719321 399.239081 C 387.027758 401.68005 384.271227 404.05605 381.463648 406.362441 C 378.651429 408.668832 375.783523 410.905613 372.864569 413.072785 C 369.945616 415.239957 366.970975 417.332879 363.949928 419.351551 C 360.92424 421.374864 357.852146 423.319286 354.733646 425.189458 C 351.615146 427.05499 348.450239 428.850912 345.243567 430.563302 C 342.036895 432.275693 338.788457 433.913834 335.502894 435.468443 C 332.217332 437.023053 328.890003 438.494131 325.53019 439.886319 C 322.170378 441.278506 318.782721 442.587163 315.357939 443.812288 C 311.933158 445.037413 308.480533 446.174366 305.000064 447.232429 C 301.519595 448.285851 298.015922 449.255741 294.489047 450.142101 C 290.962172 451.02382 287.416734 451.822007 283.848093 452.532023 C 280.284093 453.242039 276.70153 453.859242 273.105045 454.392914 C 269.508561 454.926586 265.898154 455.372086 262.278466 455.729414 C 258.658778 456.086742 255.03445 456.355898 251.40084 456.532242 C 247.771871 456.708586 244.138261 456.801398 240.500011 456.801398 C 236.861761 456.801398 233.228151 456.708586 229.599182 456.532242 C 225.965572 456.355898 222.341244 456.086742 218.721556 455.729414 C 215.101868 455.372086 211.491462 454.926586 207.894977 454.392914 C 204.298492 453.859242 200.71593 453.242039 197.151929 452.532023 C 193.583288 451.822007 190.03785 451.02382 186.510975 450.142101 C 182.9841 449.255741 179.480428 448.285851 175.999959 447.232429 C 172.51949 446.174366 169.066864 445.037413 165.642083 443.812288 C 162.217301 442.587163 158.829645 441.278506 155.469832 439.886319 C 152.110019 438.494131 148.782691 437.023053 145.497128 435.468443 C 142.211565 433.913834 138.963127 432.275693 135.756455 430.563302 C 132.549783 428.850912 129.384876 427.05499 126.266376 425.189458 C 123.147876 423.319286 120.075782 421.374864 117.050094 419.351551 C 114.029047 417.332879 111.054406 415.239957 108.135453 413.072785 C 105.216499 410.905613 102.348593 408.668832 99.536374 406.362441 C 96.728796 404.05605 93.972264 401.68005 91.280701 399.239081 C 88.584498 396.798112 85.953263 394.292174 83.382357 391.721268 C 80.81145 389.145721 78.300872 386.514486 75.859903 383.818283 C 73.418934 381.12672 71.042934 378.374829 68.736543 375.56261 C 66.430152 372.750391 64.193371 369.887125 62.026199 366.963531 C 59.859027 364.044578 57.766105 361.069937 55.747433 358.04889 C 53.728761 355.023202 51.784338 351.951108 49.914166 348.832608 C 48.043994 345.714107 46.252713 342.549201 44.535682 339.342529 C 42.823291 336.135857 41.189791 332.892059 39.635181 329.601856 C 38.080572 326.316293 36.604853 322.993605 35.212665 319.633793 C 33.820478 316.27398 32.511821 312.881683 31.286696 309.456901 C 30.061571 306.03212 28.924618 302.579494 27.866555 299.099025 C 26.813133 295.623197 25.843242 292.119525 24.956883 288.588009 C 24.075164 285.061133 23.276977 281.515696 22.571602 277.947055 C 21.861586 274.383054 21.239742 270.800492 20.70607 267.204007 C 20.172398 263.607522 19.726898 259.997116 19.36957 256.377428 C 19.012242 252.762381 18.747726 249.133412 18.566742 245.504443 C 18.390398 241.870833 18.302226 238.237223 18.302226 234.598973 C 18.302226 230.965363 18.390398 227.327113 18.566742 223.698144 C 18.747726 220.064534 19.012242 216.440206 19.36957 212.820518 C 19.726898 209.20083 20.172398 205.595064 20.70607 201.998579 C 21.239742 198.397454 21.861586 194.819532 22.571602 191.250891 C 23.276977 187.68225 24.075164 184.136812 24.956883 180.609937 C 25.843242 177.083062 26.813133 173.579389 27.866555 170.09892 C 28.924618 166.618451 30.061571 163.165826 31.286696 159.741044 C 32.511821 156.320904 33.820478 152.928606 35.212665 149.568794 C 36.604853 146.208981 38.080572 142.886293 39.635181 139.59609 C 41.189791 136.310527 42.823291 133.062089 44.535682 129.855417 C 46.252713 126.648745 48.043994 123.483838 49.914166 120.365338 C 51.784338 117.246838 53.728761 114.174744 55.747433 111.153696 C 57.766105 108.128009 59.859027 105.158008 62.026199 102.234414 C 64.193371 99.315461 66.430152 96.447555 68.736543 93.639976 C 71.042934 90.827757 73.418934 88.075866 75.859903 85.379663 C 78.300872 82.68346 80.81145 80.052225 83.382357 77.481319 C 85.953263 74.910412 88.584498 72.404474 91.280701 69.958865 C 93.972264 67.517896 96.728796 65.141896 99.536374 62.835505 C 102.348593 60.529114 105.216499 58.292333 108.135453 56.12516 C 111.054406 53.962629 114.029047 51.869707 117.050094 49.846394 C 120.075782 47.827722 123.147876 45.8833 126.266376 44.013128 C 129.384876 42.142956 132.549783 40.351675 135.756455 38.639284 C 138.963127 36.922253 142.211565 35.288752 145.497128 33.734143 C 148.782691 32.179533 152.110019 30.703815 155.469832 29.316268 C 158.829645 27.92408 162.217301 26.615424 165.642083 25.390298 C 169.066864 24.165173 172.51949 23.023579 175.999959 21.970157 C 179.480428 20.912095 182.9841 19.942204 186.510975 19.060485 C 190.03785 18.174126 193.583288 17.380579 197.151929 16.670563 C 200.71593 15.960548 204.298492 15.338704 207.894977 14.805032 C 211.491462 14.27136 215.101868 13.82586 218.721556 13.468532 C 222.341244 13.115844 225.965572 12.846688 229.599182 12.665704 C 233.228151 12.48936 236.861761 12.401188 240.500011 12.401188 C 244.138261 12.401188 247.771871 12.48936 251.40084 12.665704 C 255.03445 12.846688 258.658778 13.115844 262.278466 13.468532 C 265.898154 13.82586 269.508561 14.27136 273.105045 14.805032 C 276.70153 15.338704 280.284093 15.960548 283.848093 16.670563 C 287.416734 17.380579 290.962172 18.174126 294.489047 19.060485 C 298.015922 19.942204 301.519595 20.912095 305.000064 21.970157 C 308.480533 23.023579 311.933158 24.165173 315.357939 25.390298 C 318.782721 26.615424 322.170378 27.92408 325.53019 29.316268 C 328.890003 30.703815 332.217332 32.179533 335.502894 33.734143 C 338.788457 35.288752 342.036895 36.922253 345.243567 38.639284 C 348.450239 40.351675 351.615146 42.142956 354.733646 44.013128 C 357.852146 45.8833 360.92424 47.827722 363.949928 49.846394 C 366.970975 51.869707 369.945616 53.962629 372.864569 56.12516 C 375.783523 58.292333 378.651429 60.529114 381.463648 62.835505 C 384.271227 65.141896 387.027758 67.517896 389.719321 69.958865 C 392.415524 72.404474 395.046759 74.910412 397.617665 77.481319 C 400.188572 80.052225 402.69915 82.68346 405.140119 85.379663 C 407.581088 88.075866 409.957088 90.827757 412.263479 93.639976 C 414.56987 96.447555 416.806651 99.315461 418.973823 102.234414 C 421.140996 105.158008 423.233918 108.128009 425.25259 111.153696 C 427.271262 114.174744 429.215684 117.246838 431.085856 120.365338 C 432.956028 123.483838 434.747309 126.648745 436.464341 129.855417 C 438.176731 133.062089 439.810232 136.310527 441.364841 139.59609 C 442.919451 142.886293 444.395169 146.208981 445.787357 149.568794 C 447.179545 152.928606 448.488201 156.320904 449.713326 159.741044 C 450.938451 163.165826 452.075404 166.618451 453.133467 170.09892 C 454.186889 173.579389 455.15678 177.083062 456.043139 180.609937 C 456.924858 184.136812 457.723046 187.68225 458.428421 191.250891 C 459.138436 194.819532 459.76028 198.397454 460.293952 201.998579 C 460.827624 205.595064 461.273124 209.20083 461.630452 212.820518 C 461.98778 216.440206 462.252296 220.064534 462.43328 223.698144 C 462.609624 227.327113 462.697796 230.965363 462.697796 234.598973 Z M 462.697796 234.598973 " stroke="#4267b2" stroke-width="1" stroke-opacity="1" stroke-miterlimit="10"/><path stroke-linecap="butt" transform="matrix(0.841751, 0, 0, 0.841751, -14.941069, -10.016834)" fill-opacity="1" fill="#ffffff" fill-rule="nonzero" stroke-linejoin="miter" d="M 292.697766 78.001069 C 274.99842 81.19846 268.900639 84.200944 258.700544 90.001726 C 247.799715 96.201601 240.19837 102.698477 235.00087 107.998071 C 218.002259 125.599963 214.201587 141.999934 210.999555 154.701325 C 206.201149 173.398405 206.697696 191.000297 206.697696 191.000297 L 206.697696 204.699423 L 171.002005 204.699423 L 171.002005 266.800272 L 206.697696 266.800272 L 206.697696 454.300101 C 217.700619 455.99857 229.000541 456.898851 240.500011 456.898851 C 257.498622 456.898851 274.098139 455.000836 290.001562 451.39971 L 290.001562 266.800272 L 344.30152 266.800272 L 344.30152 204.699423 L 290.001562 204.699423 L 290.001562 191.501485 C 290.001562 191.501485 290.001562 189.102281 290.001562 188.800641 C 290.001562 188.499 290.001562 188.099906 290.001562 187.798266 C 290.001562 185.102062 290.099015 181.101843 290.702297 177.598171 C 292.201219 168.497905 295.301156 161.397748 300.498657 155.100419 C 306.498986 147.898168 313.501689 144.798231 321.29794 143.600949 C 340.598301 140.598465 356.701271 147.299528 356.701271 147.299528 L 359.699115 82.001288 C 359.699115 82.001288 347.601005 78.098522 327.599909 76.701693 C 313.501689 75.699318 300.999844 76.502147 292.697766 78.001069 Z M 292.697766 78.001069 " stroke="#ffffff" stroke-width="1" stroke-opacity="1" stroke-miterlimit="10"/></svg>