<svg width="554" height="831" viewBox="0 0 554 831" fill="none" xmlns="http://www.w3.org/2000/svg">
<path d="M509.724 828.5C509.724 805.95 510.413 745.492 510 745.5L493 754.5L491.5 745.5L511 734.5H522.474V828.5H509.724Z" fill="#339DD7"/>
<path fill-rule="evenodd" clip-rule="evenodd" d="M432.157 732.969C453.117 727.59 468.173 744.96 469.516 776.069C470.994 810.316 459.041 830.069 436.843 830.069C419.157 830.069 407.662 813.446 406.144 785.676C404.646 758.27 414.954 737.384 432.157 732.969ZM438 741C426.954 741.001 418 758.909 418 781C418 803.091 426.954 821 438 821C449.045 821 458 803.092 458 781C458 758.909 449.045 741 438 741Z" fill="#339DD7"/>
<path fill-rule="evenodd" clip-rule="evenodd" d="M357.157 732.969C378.117 727.59 393.173 744.96 394.516 776.069C395.994 810.316 384.041 830.069 361.843 830.069C344.157 830.069 332.662 813.446 331.144 785.676C329.646 758.27 339.954 737.384 357.157 732.969ZM363 741C351.954 741.001 343 758.909 343 781C343 803.091 351.954 821 363 821C374.045 821 383 803.092 383 781C383 758.909 374.045 741 363 741Z" fill="#339DD7"/>
<path fill-rule="evenodd" clip-rule="evenodd" d="M280.812 733.178C295.587 729 309.469 736.125 316.593 751.542C320.443 759.872 320.679 783.427 317.024 794.375C309.725 816.231 291.606 829.792 269.611 829.86L264.861 829.875V819.875H268.312C286.093 819.875 300.62 809.107 305.899 792.015C308.349 784.085 308.173 783.887 302.503 788.215C296.511 792.789 291.764 794.327 283.861 794.255C249.894 793.946 247.332 742.644 280.812 733.178ZM287 741C275.955 741 267 751.073 267 763.5C267 775.926 275.954 786 287 786C298.046 786 307 775.926 307 763.5C307 751.074 298.046 741 287 741Z" fill="#339DD7"/>
<path fill-rule="evenodd" clip-rule="evenodd" d="M169 729C194.404 729 213.5 750.251 213.5 778.98C213.5 807.709 195.404 831 170 831C144.596 831 124 807.709 124 778.98C124 750.251 143.596 729 169 729ZM168.5 737.5C150.551 737.5 136 756.08 136 779C136 801.92 150.551 820.5 168.5 820.5C186.449 820.5 201 801.92 201 779C201 756.08 186.449 737.5 168.5 737.5Z" fill="#339DD7"/>
<path d="M63.5497 773.896C48.5657 761.069 54.0827 738.239 73.8137 731.42C82.4327 728.442 104.21 730.508 108 734.292L104.602 743.536C104.261 743.518 101.507 742.633 98.4817 741.569C80.7207 735.321 65.2157 743.675 67.9097 758.04C69.1597 764.697 72.2677 767.077 90.5767 775.391C105.901 782.35 111.809 789.782 111.785 802.069C111.761 813.963 106.461 822.005 95.2437 827.167C84.9627 831.899 61.633 828.877 54 823.292L57 813.292C78.943 822.234 96.4847 820.731 99.0537 807.035C100.851 797.46 96.9347 791.295 85.7167 786.039C70.0287 778.688 67.5857 777.35 63.5497 773.896Z" fill="#339DD7"/>
<path d="M36 829V730H24V829H36Z" fill="#339DD7"/>
<path fill-rule="evenodd" clip-rule="evenodd" d="M71.191 4.25011C40.063 42.6381 17.537 92.4071 8.84398 142C6.23298 156.895 6.19996 202.074 8.78996 216C20.358 278.192 52.323 327.82 106.503 367.707C199.915 436.476 308.965 431.543 392.149 354.785C405.218 342.725 406.779 340.528 398.018 346.526C364.512 369.465 315.336 383.62 276.212 381.587C198.325 377.539 129.741 327.191 107.392 257.655C88.956 200.295 100.874 122.637 136.679 66.8211C139.468 62.4721 141.582 58.7881 141.377 58.6331C141.171 58.4791 128.213 46.9101 112.581 32.9261C75.418 -0.319889 75.782 0.000114152 75.166 0.000114152C74.875 0.000114152 73.086 1.91211 71.191 4.25011ZM480.265 16.6141C504.615 55.4951 517.042 101.987 518.23 158.65C518.23 222.144 509.531 263.215 478.414 311C419.912 400.838 326.615 447.174 222.503 438.098C162.459 432.864 111.521 414.001 72.621 382.595L64.888 376.352L59.446 382.483C56.452 385.855 42.078 402.009 27.503 418.381C12.928 434.753 0.907972 448.452 0.790972 448.824C0.298972 450.394 29.875 470.805 49.652 482.544C148.421 541.172 263.216 550.016 360.662 506.505C474.528 455.661 553.529 339.165 553.5 222.144C553.483 156.237 530.664 88.0471 487.296 24.3031C477.069 9.27211 472.618 4.40411 480.265 16.6141ZM270.364 24.5211C209.582 32.8151 156.204 77.1501 139.465 133.244C125.597 179.717 135.94 242.648 165.638 292.5C174.058 306.635 178.997 312.49 173.368 301.667C162.149 280.091 154.744 255.855 152.494 233.349C146.145 169.847 195.729 118.838 274.503 107.832C285.541 106.29 329.735 106.178 341.752 107.662C346.014 108.188 349.839 108.367 350.252 108.059C350.899 107.578 359.996 97.4161 368.64 87.5191C370.09 85.8591 377.844 77.0751 385.87 68.0001C393.897 58.9251 400.473 50.9921 400.483 50.3701C400.512 48.7271 380.154 39.7961 364.503 34.5851C333.579 24.2891 299.09 20.6021 270.364 24.5211ZM315.503 200.5C280.581 235.425 251.561 264 251.014 264C250.468 264 240.453 254.441 228.76 242.757L207.5 221.514L184.503 244.511L251.083 311.069L402.526 159.555L391.281 148.277C385.096 142.075 379.802 137 379.516 137C379.231 137 350.425 165.575 315.503 200.5ZM136.789 569.451C121.003 574.384 112.008 586.655 112.172 603.032C112.34 619.741 120.441 627.895 143.76 634.828C159.976 639.649 164.44 644.531 161.38 654.101C158.088 664.399 142.573 665.342 128.043 656.128C119.981 651.014 116.988 652.25 110.59 663.331L107.687 668.36L112.126 671.75C127.124 683.201 150.928 686.282 166.468 678.781C189.816 667.513 193.649 633.622 173.003 620.999C169.703 618.981 162.503 615.845 157.003 614.029C139.455 608.234 136.503 606.072 136.503 599.013C136.503 588.111 149.219 584.574 163.949 591.38C168.259 593.371 172.543 595 173.47 595C177.359 595 185.653 581.09 183.39 578.363C176.639 570.229 150.372 565.206 136.789 569.451ZM379.503 570.393C368.779 573.663 363.948 576.556 355.957 584.498C324.379 615.882 340.843 672.336 384.257 681.536C400.876 685.057 423.669 681.72 435.88 673.976L440.539 671.021L440.003 623.5L400.503 622.958L400.518 630.729C400.539 640.982 400.874 641.394 409.715 642L417.003 642.5L417.579 659.885L413.791 661.036C386.027 669.476 365.333 652.798 366.735 623.113C367.817 600.211 378.238 589.524 399.503 589.508C409.61 589.5 410.306 589.643 418.092 593.332C429.143 598.567 430.848 598.258 436.253 590.032C441.188 582.523 441.153 582.684 438.375 580.096C426.785 569.298 398.428 564.625 379.503 570.393ZM200.503 682H222.503L222.548 606.5L226.067 613C228.003 616.575 234.819 629.692 241.215 642.15C247.611 654.607 253.617 665.825 254.562 667.078C256.655 669.853 266.475 670.917 270.37 668.792C273.156 667.271 273.231 667.139 290.573 633.28L304.003 607.06L304.527 682H327.503V569H314.576C298.754 569 302.656 564.484 281.003 607.852C271.653 626.579 263.778 641.884 263.503 641.863C263.228 641.843 255.353 626.487 246.003 607.739C224.532 564.686 228.215 569 212.93 569H200.503V682Z" fill="#339DD7"/>
</svg>
