<svg width="4135" height="1543" viewBox="0 0 4135 1543" fill="none" xmlns="http://www.w3.org/2000/svg">
<path d="M4112.38 546.904L3950.95 645.244C3904.56 598.239 3861.27 574.736 3821.07 574.736C3801.28 574.736 3784.27 580.303 3770.04 591.436C3755.82 602.568 3748.71 616.175 3748.71 632.256C3748.71 658.232 3756.75 677.096 3772.83 688.848C3789.53 700.599 3833.44 718.844 3904.56 743.584C3975.69 767.705 4031.66 798.939 4072.48 837.285C4113.92 875.632 4134.64 928.822 4134.64 996.855C4134.64 1065.51 4103.72 1124.57 4041.87 1174.05C3980.02 1222.91 3905.8 1247.34 3819.21 1247.34C3760.46 1247.34 3701.7 1230.95 3642.94 1198.17C3584.81 1165.39 3535.33 1115.3 3494.51 1047.88L3686.55 960.674C3729.84 1035.51 3774.68 1072.93 3821.07 1072.93C3842.1 1072.93 3860.96 1066.13 3877.66 1052.52C3894.36 1038.91 3902.71 1023.45 3902.71 1006.13C3902.71 983.867 3893.12 967.168 3873.95 956.035C3841.44 936.108 3800.66 923.946 3764.48 912.432C3604.91 860.479 3525.12 776.055 3525.12 659.16C3525.12 588.652 3553.57 531.133 3610.47 486.602C3667.99 441.452 3742.83 418.877 3834.98 418.877C3937.04 418.877 4029.5 461.553 4112.38 546.904Z" fill="#0E4A92"/>
<path d="M2384.82 434.648V561.748C2437 484.5 2531.46 415 2649 415C2755.24 415 2834.44 499.726 2870.96 592.363C2920.44 529.277 2968.68 484.437 3015.68 457.842C3063.31 430.628 3107.53 417.021 3148.35 417.021C3220.71 417.021 3281.94 447.018 3332.04 507.012C3382.14 566.387 3407.19 639.678 3407.19 726.885V1232.5H3169.69V789.971C3169.69 746.058 3157.63 709.258 3133.51 679.57C3109.38 649.264 3080.32 634.111 3046.3 634.111C3005.48 634.111 2970.22 651.12 2940.54 685.137C2910.85 719.154 2896.01 759.665 2896.01 806.67V1232.5H2660.36V801.104C2660.36 754.717 2647.99 715.752 2623.25 684.209C2599.13 652.048 2569.75 635.967 2535.12 635.967C2494.3 635.967 2459.04 653.594 2429.36 688.848C2399.67 723.483 2384.82 765.231 2384.82 814.092V1232.5H2145.47V434.648H2384.82Z" fill="#0E4A92"/>
<ellipse cx="1884.03" cy="136" rx="135.5" ry="134.5" fill="#BD0908"/>
<path d="M1765.91 434.648H2003.41V1232.5H1765.91V434.648Z" fill="#0E4A92"/>
<path d="M1392.03 690C1320.95 744.936 1280.34 773.841 1206.53 822L1439.53 1232.5H1700.03L1392.03 690Z" fill="#0E4A92"/>
<path d="M1209.32 821.786C1444.77 671.332 1822.32 334.958 1916.5 196.5L1806.5 242C822.969 1211.2 -648.978 1334.28 882 121.5C661.789 239 545.399 343.165 331.655 527.876C166.842 673.831 -78.7356 931.004 24.5722 1117.2C113.241 1280.65 496.637 1266.93 1209.32 821.786Z" fill="#BD0908"/>
<path fill-rule="evenodd" clip-rule="evenodd" d="M476.525 941C981.525 825.5 1412.53 532.5 1721.03 259C1571.01 365.294 1476.46 427.908 1304.53 525L1006.03 0L476.525 941ZM1005.03 466.5L858.525 721L1096.03 630L1005.03 466.5Z" fill="#0E4A92"/>
<path d="M511.27 1482V1318.91H533.36V1482H511.27ZM647.056 1482V1416.9C647.056 1408.44 644.393 1401.47 639.066 1395.99C633.739 1390.51 626.846 1387.76 618.386 1387.76C612.746 1387.76 607.733 1389.02 603.346 1391.52C598.959 1394.03 595.513 1397.48 593.006 1401.86C590.499 1406.25 589.246 1411.26 589.246 1416.9L580.551 1411.97C580.551 1403.51 582.431 1395.99 586.191 1389.41C589.951 1382.83 595.199 1377.66 601.936 1373.9C608.673 1369.98 616.271 1368.02 624.731 1368.02C633.191 1368.02 640.633 1370.14 647.056 1374.37C653.636 1378.6 658.806 1384.16 662.566 1391.05C666.326 1397.79 668.206 1405 668.206 1412.67V1482H647.056ZM568.096 1482V1370.37H589.246V1482H568.096ZM732.326 1484.35C726.059 1484.35 720.106 1483.57 714.466 1482C708.983 1480.28 703.891 1477.93 699.191 1474.95C694.491 1471.82 690.418 1468.13 686.971 1463.9L700.601 1450.27C704.674 1455.29 709.374 1459.05 714.701 1461.55C720.028 1463.9 725.981 1465.08 732.561 1465.08C739.141 1465.08 744.233 1463.98 747.836 1461.79C751.439 1459.44 753.241 1456.23 753.241 1452.15C753.241 1448.08 751.753 1444.95 748.776 1442.75C745.956 1440.4 742.274 1438.52 737.731 1437.11C733.188 1435.55 728.331 1434.06 723.161 1432.65C718.148 1431.08 713.369 1429.12 708.826 1426.77C704.283 1424.42 700.523 1421.21 697.546 1417.14C694.726 1413.07 693.316 1407.66 693.316 1400.92C693.316 1394.19 694.961 1388.39 698.251 1383.53C701.541 1378.52 706.084 1374.68 711.881 1372.02C717.834 1369.36 724.963 1368.02 733.266 1368.02C742.039 1368.02 749.794 1369.59 756.531 1372.72C763.424 1375.7 769.064 1380.24 773.451 1386.35L759.821 1399.98C756.688 1395.91 752.771 1392.78 748.071 1390.58C743.528 1388.39 738.358 1387.29 732.561 1387.29C726.451 1387.29 721.751 1388.39 718.461 1390.58C715.328 1392.62 713.761 1395.52 713.761 1399.28C713.761 1403.04 715.171 1405.94 717.991 1407.97C720.811 1410.01 724.493 1411.73 729.036 1413.14C733.736 1414.55 738.593 1416.04 743.606 1417.61C748.619 1419.02 753.398 1420.98 757.941 1423.48C762.484 1425.99 766.166 1429.36 768.986 1433.59C771.963 1437.82 773.451 1443.38 773.451 1450.27C773.451 1460.77 769.691 1469.07 762.171 1475.18C754.808 1481.3 744.859 1484.35 732.326 1484.35ZM842.014 1484.35C832.927 1484.35 824.702 1482.31 817.339 1478.24C810.132 1474.01 804.492 1468.21 800.419 1460.85C796.346 1453.49 794.309 1444.95 794.309 1435.23V1370.37H815.459V1434.29C815.459 1440.4 816.477 1445.73 818.514 1450.27C820.707 1454.66 823.841 1458.03 827.914 1460.38C831.987 1462.73 836.766 1463.9 842.249 1463.9C850.552 1463.9 857.054 1461.32 861.754 1456.15C866.454 1450.82 868.804 1443.54 868.804 1434.29V1370.37H889.954V1435.23C889.954 1444.95 887.917 1453.49 883.844 1460.85C879.771 1468.21 874.131 1474.01 866.924 1478.24C859.874 1482.31 851.571 1484.35 842.014 1484.35ZM918.301 1482V1370.37H939.451V1482H918.301ZM939.451 1418.31L931.461 1414.79C931.461 1400.53 934.751 1389.17 941.331 1380.71C947.911 1372.25 957.389 1368.02 969.766 1368.02C975.406 1368.02 980.498 1369.04 985.041 1371.08C989.584 1372.96 993.814 1376.17 997.731 1380.71L983.866 1395.05C981.516 1392.54 978.931 1390.74 976.111 1389.64C973.291 1388.55 970.001 1388 966.241 1388C958.408 1388 951.984 1390.51 946.971 1395.52C941.958 1400.53 939.451 1408.13 939.451 1418.31ZM1056.42 1484.35C1046.24 1484.35 1036.99 1481.84 1028.69 1476.83C1020.39 1471.66 1013.81 1464.69 1008.95 1455.91C1004.25 1447.14 1001.9 1437.27 1001.9 1426.3C1001.9 1415.34 1004.25 1405.47 1008.95 1396.69C1013.81 1387.92 1020.31 1380.95 1028.46 1375.78C1036.76 1370.61 1046.08 1368.02 1056.42 1368.02C1064.88 1368.02 1072.4 1369.83 1078.98 1373.43C1085.72 1376.88 1091.12 1381.73 1095.2 1388C1099.27 1394.11 1101.54 1401.24 1102.01 1409.38V1442.99C1101.54 1450.98 1099.27 1458.11 1095.2 1464.37C1091.28 1470.64 1085.95 1475.58 1079.22 1479.18C1072.64 1482.63 1065.04 1484.35 1056.42 1484.35ZM1059.95 1464.37C1070.44 1464.37 1078.9 1460.85 1085.33 1453.8C1091.75 1446.59 1094.96 1437.43 1094.96 1426.3C1094.96 1418.63 1093.47 1411.97 1090.5 1406.33C1087.68 1400.53 1083.6 1396.07 1078.28 1392.93C1072.95 1389.64 1066.76 1388 1059.71 1388C1052.66 1388 1046.39 1389.64 1040.91 1392.93C1035.58 1396.22 1031.35 1400.77 1028.22 1406.56C1025.24 1412.2 1023.76 1418.71 1023.76 1426.07C1023.76 1433.59 1025.24 1440.25 1028.22 1446.04C1031.35 1451.68 1035.66 1456.15 1041.15 1459.44C1046.63 1462.73 1052.9 1464.37 1059.95 1464.37ZM1093.55 1482V1451.92L1097.55 1424.66L1093.55 1397.63V1370.37H1114.94V1482H1093.55ZM1224.69 1482V1416.9C1224.69 1408.44 1222.02 1401.47 1216.7 1395.99C1211.37 1390.51 1204.48 1387.76 1196.02 1387.76C1190.38 1387.76 1185.36 1389.02 1180.98 1391.52C1176.59 1394.03 1173.14 1397.48 1170.64 1401.86C1168.13 1406.25 1166.88 1411.26 1166.88 1416.9L1158.18 1411.97C1158.18 1403.51 1160.06 1395.99 1163.82 1389.41C1167.58 1382.83 1172.83 1377.66 1179.57 1373.9C1186.3 1369.98 1193.9 1368.02 1202.36 1368.02C1210.82 1368.02 1218.26 1370.14 1224.69 1374.37C1231.27 1378.6 1236.44 1384.16 1240.2 1391.05C1243.96 1397.79 1245.84 1405 1245.84 1412.67V1482H1224.69ZM1145.73 1482V1370.37H1166.88V1482H1145.73ZM1325.47 1484.35C1314.5 1484.35 1304.55 1481.76 1295.62 1476.59C1286.85 1471.42 1279.88 1464.45 1274.71 1455.68C1269.69 1446.75 1267.19 1436.88 1267.19 1426.07C1267.19 1415.1 1269.69 1405.23 1274.71 1396.46C1279.88 1387.69 1286.85 1380.79 1295.62 1375.78C1304.55 1370.61 1314.5 1368.02 1325.47 1368.02C1334.08 1368.02 1342.07 1369.67 1349.44 1372.96C1356.8 1376.09 1363.15 1380.71 1368.47 1386.82L1354.37 1400.92C1350.93 1396.85 1346.7 1393.8 1341.68 1391.76C1336.83 1389.57 1331.42 1388.47 1325.47 1388.47C1318.42 1388.47 1312.15 1390.11 1306.67 1393.4C1301.18 1396.54 1296.88 1400.92 1293.74 1406.56C1290.61 1412.2 1289.04 1418.71 1289.04 1426.07C1289.04 1433.43 1290.61 1439.93 1293.74 1445.57C1296.88 1451.21 1301.18 1455.68 1306.67 1458.97C1312.15 1462.26 1318.42 1463.9 1325.47 1463.9C1331.42 1463.9 1336.83 1462.89 1341.68 1460.85C1346.7 1458.66 1351 1455.52 1354.61 1451.45L1368.47 1465.55C1363.3 1471.5 1356.96 1476.12 1349.44 1479.41C1342.07 1482.71 1334.08 1484.35 1325.47 1484.35ZM1438.85 1484.35C1427.73 1484.35 1417.7 1481.84 1408.77 1476.83C1399.84 1471.66 1392.79 1464.69 1387.62 1455.91C1382.45 1447.14 1379.87 1437.19 1379.87 1426.07C1379.87 1415.1 1382.38 1405.23 1387.39 1396.46C1392.56 1387.69 1399.45 1380.79 1408.07 1375.78C1416.84 1370.61 1426.63 1368.02 1437.44 1368.02C1447.78 1368.02 1456.87 1370.37 1464.7 1375.07C1472.69 1379.77 1478.88 1386.28 1483.27 1394.58C1487.81 1402.88 1490.08 1412.28 1490.08 1422.78C1490.08 1424.35 1490.01 1426.07 1489.85 1427.95C1489.69 1429.67 1489.38 1431.71 1488.91 1434.06H1394.67V1416.43H1477.63L1469.87 1423.25C1469.87 1415.73 1468.54 1409.38 1465.88 1404.21C1463.22 1398.89 1459.46 1394.81 1454.6 1391.99C1449.74 1389.02 1443.87 1387.53 1436.97 1387.53C1429.77 1387.53 1423.42 1389.1 1417.94 1392.23C1412.46 1395.36 1408.23 1399.75 1405.25 1405.39C1402.27 1411.03 1400.78 1417.69 1400.78 1425.36C1400.78 1433.2 1402.35 1440.09 1405.48 1446.04C1408.62 1451.84 1413.08 1456.38 1418.88 1459.67C1424.68 1462.81 1431.33 1464.37 1438.85 1464.37C1445.12 1464.37 1450.84 1463.28 1456.01 1461.08C1461.34 1458.89 1465.88 1455.6 1469.64 1451.21L1483.27 1465.08C1477.94 1471.35 1471.36 1476.12 1463.53 1479.41C1455.85 1482.71 1447.63 1484.35 1438.85 1484.35ZM1580.59 1482V1462.73H1629.94C1639.34 1462.73 1646.7 1459.99 1652.03 1454.5C1657.36 1448.86 1660.02 1442.13 1660.02 1434.29C1660.02 1428.97 1658.85 1424.19 1656.5 1419.96C1654.15 1415.57 1650.7 1412.13 1646.16 1409.62C1641.77 1407.11 1636.6 1405.86 1630.65 1405.86H1580.59V1386.59H1627.36C1635.19 1386.59 1641.38 1384.55 1645.92 1380.48C1650.62 1376.25 1652.97 1370.22 1652.97 1362.38C1652.97 1354.55 1650.54 1348.6 1645.69 1344.52C1640.83 1340.29 1634.41 1338.18 1626.42 1338.18H1580.59V1318.91H1626.89C1637.54 1318.91 1646.39 1320.87 1653.44 1324.78C1660.65 1328.54 1666.05 1333.56 1669.66 1339.82C1673.42 1346.09 1675.3 1352.98 1675.3 1360.5C1675.3 1369.28 1672.87 1376.95 1668.01 1383.53C1663.31 1390.11 1656.34 1395.28 1647.1 1399.04L1648.98 1391.99C1659.47 1395.75 1667.62 1401.47 1673.42 1409.15C1679.37 1416.67 1682.35 1425.6 1682.35 1435.94C1682.35 1444.56 1680.23 1452.31 1676 1459.2C1671.77 1466.1 1665.66 1471.66 1657.67 1475.89C1649.84 1479.96 1640.2 1482 1628.77 1482H1580.59ZM1565.79 1482V1318.91H1587.88V1482H1565.79ZM1708.44 1482V1370.37H1729.59V1482H1708.44ZM1729.59 1418.31L1721.6 1414.79C1721.6 1400.53 1724.89 1389.17 1731.47 1380.71C1738.05 1372.25 1747.53 1368.02 1759.91 1368.02C1765.55 1368.02 1770.64 1369.04 1775.18 1371.08C1779.73 1372.96 1783.96 1376.17 1787.87 1380.71L1774.01 1395.05C1771.66 1392.54 1769.07 1390.74 1766.25 1389.64C1763.43 1388.55 1760.14 1388 1756.38 1388C1748.55 1388 1742.13 1390.51 1737.11 1395.52C1732.1 1400.53 1729.59 1408.13 1729.59 1418.31ZM1850.09 1484.35C1839.12 1484.35 1829.25 1481.76 1820.48 1476.59C1811.7 1471.42 1804.73 1464.45 1799.56 1455.68C1794.39 1446.75 1791.81 1436.8 1791.81 1425.83C1791.81 1415.02 1794.39 1405.31 1799.56 1396.69C1804.73 1387.92 1811.7 1380.95 1820.48 1375.78C1829.25 1370.61 1839.12 1368.02 1850.09 1368.02C1860.9 1368.02 1870.69 1370.61 1879.46 1375.78C1888.39 1380.79 1895.44 1387.69 1900.61 1396.46C1905.78 1405.23 1908.37 1415.02 1908.37 1425.83C1908.37 1436.8 1905.78 1446.75 1900.61 1455.68C1895.44 1464.45 1888.39 1471.42 1879.46 1476.59C1870.69 1481.76 1860.9 1484.35 1850.09 1484.35ZM1850.09 1463.9C1857.14 1463.9 1863.4 1462.26 1868.89 1458.97C1874.37 1455.68 1878.68 1451.21 1881.81 1445.57C1884.95 1439.78 1886.51 1433.2 1886.51 1425.83C1886.51 1418.63 1884.87 1412.2 1881.58 1406.56C1878.44 1400.92 1874.14 1396.54 1868.65 1393.4C1863.33 1390.11 1857.14 1388.47 1850.09 1388.47C1843.04 1388.47 1836.77 1390.11 1831.29 1393.4C1825.8 1396.54 1821.5 1400.92 1818.36 1406.56C1815.23 1412.2 1813.66 1418.63 1813.66 1425.83C1813.66 1433.2 1815.23 1439.78 1818.36 1445.57C1821.5 1451.21 1825.8 1455.68 1831.29 1458.97C1836.77 1462.26 1843.04 1463.9 1850.09 1463.9ZM2003.64 1482L1951.47 1424.89L2003.17 1370.37H2028.78L1971.21 1430.53L1972.15 1418.31L2030.9 1482H2003.64ZM1932.2 1482V1314.21H1953.35V1482H1932.2ZM2094.51 1484.35C2083.39 1484.35 2073.36 1481.84 2064.43 1476.83C2055.5 1471.66 2048.45 1464.69 2043.28 1455.91C2038.11 1447.14 2035.53 1437.19 2035.53 1426.07C2035.53 1415.1 2038.03 1405.23 2043.05 1396.46C2048.22 1387.69 2055.11 1380.79 2063.73 1375.78C2072.5 1370.61 2082.29 1368.02 2093.1 1368.02C2103.44 1368.02 2112.53 1370.37 2120.36 1375.07C2128.35 1379.77 2134.54 1386.28 2138.93 1394.58C2143.47 1402.88 2145.74 1412.28 2145.74 1422.78C2145.74 1424.35 2145.66 1426.07 2145.51 1427.95C2145.35 1429.67 2145.04 1431.71 2144.57 1434.06H2050.33V1416.43H2133.29L2125.53 1423.25C2125.53 1415.73 2124.2 1409.38 2121.54 1404.21C2118.87 1398.89 2115.11 1394.81 2110.26 1391.99C2105.4 1389.02 2099.53 1387.53 2092.63 1387.53C2085.43 1387.53 2079.08 1389.1 2073.6 1392.23C2068.11 1395.36 2063.88 1399.75 2060.91 1405.39C2057.93 1411.03 2056.44 1417.69 2056.44 1425.36C2056.44 1433.2 2058.01 1440.09 2061.14 1446.04C2064.28 1451.84 2068.74 1456.38 2074.54 1459.67C2080.33 1462.81 2086.99 1464.37 2094.51 1464.37C2100.78 1464.37 2106.5 1463.28 2111.67 1461.08C2116.99 1458.89 2121.54 1455.6 2125.3 1451.21L2138.93 1465.08C2133.6 1471.35 2127.02 1476.12 2119.19 1479.41C2111.51 1482.71 2103.29 1484.35 2094.51 1484.35ZM2168.8 1482V1370.37H2189.95V1482H2168.8ZM2189.95 1418.31L2181.96 1414.79C2181.96 1400.53 2185.25 1389.17 2191.83 1380.71C2198.41 1372.25 2207.89 1368.02 2220.27 1368.02C2225.91 1368.02 2231 1369.04 2235.54 1371.08C2240.09 1372.96 2244.32 1376.17 2248.23 1380.71L2234.37 1395.05C2232.02 1392.54 2229.43 1390.74 2226.61 1389.64C2223.79 1388.55 2220.5 1388 2216.74 1388C2208.91 1388 2202.49 1390.51 2197.47 1395.52C2192.46 1400.53 2189.95 1408.13 2189.95 1418.31ZM2296.09 1484.35C2289.82 1484.35 2283.87 1483.57 2278.23 1482C2272.74 1480.28 2267.65 1477.93 2262.95 1474.95C2258.25 1471.82 2254.18 1468.13 2250.73 1463.9L2264.36 1450.27C2268.43 1455.29 2273.13 1459.05 2278.46 1461.55C2283.79 1463.9 2289.74 1465.08 2296.32 1465.08C2302.9 1465.08 2307.99 1463.98 2311.6 1461.79C2315.2 1459.44 2317 1456.23 2317 1452.15C2317 1448.08 2315.51 1444.95 2312.54 1442.75C2309.72 1440.4 2306.03 1438.52 2301.49 1437.11C2296.95 1435.55 2292.09 1434.06 2286.92 1432.65C2281.91 1431.08 2277.13 1429.12 2272.59 1426.77C2268.04 1424.42 2264.28 1421.21 2261.31 1417.14C2258.49 1413.07 2257.08 1407.66 2257.08 1400.92C2257.08 1394.19 2258.72 1388.39 2262.01 1383.53C2265.3 1378.52 2269.84 1374.68 2275.64 1372.02C2281.59 1369.36 2288.72 1368.02 2297.03 1368.02C2305.8 1368.02 2313.55 1369.59 2320.29 1372.72C2327.18 1375.7 2332.82 1380.24 2337.21 1386.35L2323.58 1399.98C2320.45 1395.91 2316.53 1392.78 2311.83 1390.58C2307.29 1388.39 2302.12 1387.29 2296.32 1387.29C2290.21 1387.29 2285.51 1388.39 2282.22 1390.58C2279.09 1392.62 2277.52 1395.52 2277.52 1399.28C2277.52 1403.04 2278.93 1405.94 2281.75 1407.97C2284.57 1410.01 2288.25 1411.73 2292.8 1413.14C2297.5 1414.55 2302.35 1416.04 2307.37 1417.61C2312.38 1419.02 2317.16 1420.98 2321.7 1423.48C2326.24 1425.99 2329.93 1429.36 2332.75 1433.59C2335.72 1437.82 2337.21 1443.38 2337.21 1450.27C2337.21 1460.77 2333.45 1469.07 2325.93 1475.18C2318.57 1481.3 2308.62 1484.35 2296.09 1484.35ZM2520.46 1482L2442.44 1398.34C2436.33 1391.76 2431.78 1385.49 2428.81 1379.54C2425.83 1373.59 2424.34 1367.01 2424.34 1359.8C2424.34 1351.5 2426.3 1344.13 2430.22 1337.71C2434.13 1331.13 2439.54 1325.96 2446.43 1322.2C2453.32 1318.28 2461.24 1316.32 2470.17 1316.32C2476.75 1316.32 2482.7 1317.42 2488.03 1319.61C2493.51 1321.65 2498.29 1324.39 2502.36 1327.84C2506.59 1331.29 2510.12 1335.2 2512.94 1339.59L2497.66 1353.45C2494.06 1348.44 2490.06 1344.45 2485.68 1341.47C2481.45 1338.34 2476.28 1336.77 2470.17 1336.77C2463.12 1336.77 2457.24 1338.88 2452.54 1343.11C2447.84 1347.34 2445.49 1352.83 2445.49 1359.56C2445.49 1365.2 2446.67 1369.98 2449.02 1373.9C2451.37 1377.82 2454.89 1382.36 2459.59 1387.53L2546.31 1482H2520.46ZM2461.94 1484.35C2451.13 1484.35 2441.65 1482.24 2433.51 1478C2425.36 1473.77 2419.01 1467.98 2414.47 1460.61C2410.08 1453.09 2407.89 1444.56 2407.89 1435C2407.89 1425.13 2410.55 1416.2 2415.88 1408.21C2421.21 1400.22 2428.96 1393.87 2439.15 1389.17L2449.25 1402.33C2442.98 1405.47 2438.05 1409.78 2434.45 1415.26C2430.84 1420.59 2429.04 1427.01 2429.04 1434.53C2429.04 1440.64 2430.45 1445.89 2433.27 1450.27C2436.09 1454.66 2440.01 1458.11 2445.02 1460.61C2450.19 1462.96 2456.07 1464.14 2462.65 1464.14C2470.95 1464.14 2478 1462.42 2483.8 1458.97C2489.59 1455.52 2493.98 1451.14 2496.96 1445.81L2510.82 1462.02C2507.69 1466.25 2503.54 1470.09 2498.37 1473.54C2493.35 1476.83 2487.71 1479.49 2481.45 1481.53C2475.34 1483.41 2468.83 1484.35 2461.94 1484.35ZM2682.39 1484.35C2670.64 1484.35 2659.76 1482.24 2649.73 1478C2639.7 1473.62 2630.93 1467.59 2623.41 1459.91C2616.05 1452.23 2610.33 1443.3 2606.25 1433.12C2602.18 1422.94 2600.14 1412.05 2600.14 1400.45C2600.14 1388.7 2602.18 1377.74 2606.25 1367.55C2610.33 1357.37 2616.05 1348.52 2623.41 1341C2630.93 1333.32 2639.62 1327.37 2649.49 1323.14C2659.52 1318.75 2670.41 1316.56 2682.16 1316.56C2695.01 1316.56 2706.29 1318.75 2716 1323.14C2725.71 1327.53 2734.33 1333.48 2741.85 1341L2726.57 1356.27C2721.4 1350.48 2715.06 1345.93 2707.54 1342.64C2700.18 1339.35 2691.72 1337.71 2682.16 1337.71C2673.54 1337.71 2665.63 1339.28 2658.42 1342.41C2651.22 1345.39 2644.95 1349.69 2639.62 1355.33C2634.3 1360.97 2630.15 1367.63 2627.17 1375.31C2624.35 1382.99 2622.94 1391.37 2622.94 1400.45C2622.94 1409.54 2624.35 1417.92 2627.17 1425.6C2630.15 1433.28 2634.3 1439.93 2639.62 1445.57C2644.95 1451.21 2651.22 1455.6 2658.42 1458.73C2665.63 1461.71 2673.54 1463.2 2682.16 1463.2C2692.34 1463.2 2701.19 1461.55 2708.71 1458.26C2716.23 1454.82 2722.58 1450.2 2727.75 1444.4L2743.02 1459.44C2735.5 1467.27 2726.65 1473.38 2716.47 1477.77C2706.44 1482.16 2695.08 1484.35 2682.39 1484.35ZM2813.5 1484.35C2802.53 1484.35 2792.66 1481.76 2783.89 1476.59C2775.11 1471.42 2768.14 1464.45 2762.97 1455.68C2757.8 1446.75 2755.22 1436.8 2755.22 1425.83C2755.22 1415.02 2757.8 1405.31 2762.97 1396.69C2768.14 1387.92 2775.11 1380.95 2783.89 1375.78C2792.66 1370.61 2802.53 1368.02 2813.5 1368.02C2824.31 1368.02 2834.1 1370.61 2842.87 1375.78C2851.8 1380.79 2858.85 1387.69 2864.02 1396.46C2869.19 1405.23 2871.78 1415.02 2871.78 1425.83C2871.78 1436.8 2869.19 1446.75 2864.02 1455.68C2858.85 1464.45 2851.8 1471.42 2842.87 1476.59C2834.1 1481.76 2824.31 1484.35 2813.5 1484.35ZM2813.5 1463.9C2820.55 1463.9 2826.81 1462.26 2832.3 1458.97C2837.78 1455.68 2842.09 1451.21 2845.22 1445.57C2848.35 1439.78 2849.92 1433.2 2849.92 1425.83C2849.92 1418.63 2848.28 1412.2 2844.99 1406.56C2841.85 1400.92 2837.54 1396.54 2832.06 1393.4C2826.73 1390.11 2820.55 1388.47 2813.5 1388.47C2806.45 1388.47 2800.18 1390.11 2794.7 1393.4C2789.21 1396.54 2784.9 1400.92 2781.77 1406.56C2778.64 1412.2 2777.07 1418.63 2777.07 1425.83C2777.07 1433.2 2778.64 1439.78 2781.77 1445.57C2784.9 1451.21 2789.21 1455.68 2794.7 1458.97C2800.18 1462.26 2806.45 1463.9 2813.5 1463.9ZM2974.57 1482V1416.9C2974.57 1408.44 2971.9 1401.47 2966.58 1395.99C2961.25 1390.51 2954.36 1387.76 2945.9 1387.76C2940.26 1387.76 2935.24 1389.02 2930.86 1391.52C2926.47 1394.03 2923.02 1397.48 2920.52 1401.86C2918.01 1406.25 2916.76 1411.26 2916.76 1416.9L2908.06 1411.97C2908.06 1403.51 2909.94 1395.99 2913.7 1389.41C2917.46 1382.83 2922.71 1377.66 2929.45 1373.9C2936.18 1369.98 2943.78 1368.02 2952.24 1368.02C2960.7 1368.02 2968.14 1370.14 2974.57 1374.37C2981.15 1378.6 2986.32 1384.16 2990.08 1391.05C2993.84 1397.79 2995.72 1405 2995.72 1412.67V1482H2974.57ZM2895.61 1482V1370.37H2916.76V1482H2895.61ZM3059.84 1484.35C3053.57 1484.35 3047.62 1483.57 3041.98 1482C3036.49 1480.28 3031.4 1477.93 3026.7 1474.95C3022 1471.82 3017.93 1468.13 3014.48 1463.9L3028.11 1450.27C3032.18 1455.29 3036.88 1459.05 3042.21 1461.55C3047.54 1463.9 3053.49 1465.08 3060.07 1465.08C3066.65 1465.08 3071.74 1463.98 3075.35 1461.79C3078.95 1459.44 3080.75 1456.23 3080.75 1452.15C3080.75 1448.08 3079.26 1444.95 3076.29 1442.75C3073.47 1440.4 3069.78 1438.52 3065.24 1437.11C3060.7 1435.55 3055.84 1434.06 3050.67 1432.65C3045.66 1431.08 3040.88 1429.12 3036.34 1426.77C3031.79 1424.42 3028.03 1421.21 3025.06 1417.14C3022.24 1413.07 3020.83 1407.66 3020.83 1400.92C3020.83 1394.19 3022.47 1388.39 3025.76 1383.53C3029.05 1378.52 3033.59 1374.68 3039.39 1372.02C3045.34 1369.36 3052.47 1368.02 3060.78 1368.02C3069.55 1368.02 3077.3 1369.59 3084.04 1372.72C3090.93 1375.7 3096.57 1380.24 3100.96 1386.35L3087.33 1399.98C3084.2 1395.91 3080.28 1392.78 3075.58 1390.58C3071.04 1388.39 3065.87 1387.29 3060.07 1387.29C3053.96 1387.29 3049.26 1388.39 3045.97 1390.58C3042.84 1392.62 3041.27 1395.52 3041.27 1399.28C3041.27 1403.04 3042.68 1405.94 3045.5 1407.97C3048.32 1410.01 3052 1411.73 3056.55 1413.14C3061.25 1414.55 3066.1 1416.04 3071.12 1417.61C3076.13 1419.02 3080.91 1420.98 3085.45 1423.48C3089.99 1425.99 3093.68 1429.36 3096.5 1433.59C3099.47 1437.82 3100.96 1443.38 3100.96 1450.27C3100.96 1460.77 3097.2 1469.07 3089.68 1475.18C3082.32 1481.3 3072.37 1484.35 3059.84 1484.35ZM3169.52 1484.35C3160.44 1484.35 3152.21 1482.31 3144.85 1478.24C3137.64 1474.01 3132 1468.21 3127.93 1460.85C3123.86 1453.49 3121.82 1444.95 3121.82 1435.23V1370.37H3142.97V1434.29C3142.97 1440.4 3143.99 1445.73 3146.02 1450.27C3148.22 1454.66 3151.35 1458.03 3155.42 1460.38C3159.5 1462.73 3164.28 1463.9 3169.76 1463.9C3178.06 1463.9 3184.56 1461.32 3189.26 1456.15C3193.96 1450.82 3196.31 1443.54 3196.31 1434.29V1370.37H3217.46V1435.23C3217.46 1444.95 3215.43 1453.49 3211.35 1460.85C3207.28 1468.21 3201.64 1474.01 3194.43 1478.24C3187.38 1482.31 3179.08 1484.35 3169.52 1484.35ZM3245.81 1482V1314.21H3266.96V1482H3245.81ZM3315.06 1482V1323.61H3336.21V1482H3315.06ZM3287.57 1389.64V1370.37H3363.71V1389.64H3287.57ZM3428.45 1484.35C3418.27 1484.35 3409.03 1481.84 3400.72 1476.83C3392.42 1471.66 3385.84 1464.69 3380.98 1455.91C3376.28 1447.14 3373.93 1437.27 3373.93 1426.3C3373.93 1415.34 3376.28 1405.47 3380.98 1396.69C3385.84 1387.92 3392.34 1380.95 3400.49 1375.78C3408.79 1370.61 3418.11 1368.02 3428.45 1368.02C3436.91 1368.02 3444.43 1369.83 3451.01 1373.43C3457.75 1376.88 3463.15 1381.73 3467.23 1388C3471.3 1394.11 3473.57 1401.24 3474.04 1409.38V1442.99C3473.57 1450.98 3471.3 1458.11 3467.23 1464.37C3463.31 1470.64 3457.98 1475.58 3451.25 1479.18C3444.67 1482.63 3437.07 1484.35 3428.45 1484.35ZM3431.98 1464.37C3442.47 1464.37 3450.93 1460.85 3457.36 1453.8C3463.78 1446.59 3466.99 1437.43 3466.99 1426.3C3466.99 1418.63 3465.5 1411.97 3462.53 1406.33C3459.71 1400.53 3455.63 1396.07 3450.31 1392.93C3444.98 1389.64 3438.79 1388 3431.74 1388C3424.69 1388 3418.43 1389.64 3412.94 1392.93C3407.62 1396.22 3403.39 1400.77 3400.25 1406.56C3397.28 1412.2 3395.79 1418.71 3395.79 1426.07C3395.79 1433.59 3397.28 1440.25 3400.25 1446.04C3403.39 1451.68 3407.69 1456.15 3413.18 1459.44C3418.66 1462.73 3424.93 1464.37 3431.98 1464.37ZM3465.58 1482V1451.92L3469.58 1424.66L3465.58 1397.63V1370.37H3486.97V1482H3465.58ZM3596.72 1482V1416.9C3596.72 1408.44 3594.06 1401.47 3588.73 1395.99C3583.4 1390.51 3576.51 1387.76 3568.05 1387.76C3562.41 1387.76 3557.4 1389.02 3553.01 1391.52C3548.62 1394.03 3545.18 1397.48 3542.67 1401.86C3540.16 1406.25 3538.91 1411.26 3538.91 1416.9L3530.21 1411.97C3530.21 1403.51 3532.09 1395.99 3535.85 1389.41C3539.61 1382.83 3544.86 1377.66 3551.6 1373.9C3558.34 1369.98 3565.93 1368.02 3574.39 1368.02C3582.85 1368.02 3590.3 1370.14 3596.72 1374.37C3603.3 1378.6 3608.47 1384.16 3612.23 1391.05C3615.99 1397.79 3617.87 1405 3617.87 1412.67V1482H3596.72ZM3517.76 1482V1370.37H3538.91V1482H3517.76ZM3662.28 1482V1323.61H3683.43V1482H3662.28ZM3634.79 1389.64V1370.37H3710.93V1389.64H3634.79ZM3764.84 1484.35C3758.57 1484.35 3752.62 1483.57 3746.98 1482C3741.49 1480.28 3736.4 1477.93 3731.7 1474.95C3727 1471.82 3722.93 1468.13 3719.48 1463.9L3733.11 1450.27C3737.18 1455.29 3741.88 1459.05 3747.21 1461.55C3752.54 1463.9 3758.49 1465.08 3765.07 1465.08C3771.65 1465.08 3776.74 1463.98 3780.35 1461.79C3783.95 1459.44 3785.75 1456.23 3785.75 1452.15C3785.75 1448.08 3784.26 1444.95 3781.29 1442.75C3778.47 1440.4 3774.78 1438.52 3770.24 1437.11C3765.7 1435.55 3760.84 1434.06 3755.67 1432.65C3750.66 1431.08 3745.88 1429.12 3741.34 1426.77C3736.79 1424.42 3733.03 1421.21 3730.06 1417.14C3727.24 1413.07 3725.83 1407.66 3725.83 1400.92C3725.83 1394.19 3727.47 1388.39 3730.76 1383.53C3734.05 1378.52 3738.59 1374.68 3744.39 1372.02C3750.34 1369.36 3757.47 1368.02 3765.78 1368.02C3774.55 1368.02 3782.3 1369.59 3789.04 1372.72C3795.93 1375.7 3801.57 1380.24 3805.96 1386.35L3792.33 1399.98C3789.2 1395.91 3785.28 1392.78 3780.58 1390.58C3776.04 1388.39 3770.87 1387.29 3765.07 1387.29C3758.96 1387.29 3754.26 1388.39 3750.97 1390.58C3747.84 1392.62 3746.27 1395.52 3746.27 1399.28C3746.27 1403.04 3747.68 1405.94 3750.5 1407.97C3753.32 1410.01 3757 1411.73 3761.55 1413.14C3766.25 1414.55 3771.1 1416.04 3776.12 1417.61C3781.13 1419.02 3785.91 1420.98 3790.45 1423.48C3794.99 1425.99 3798.68 1429.36 3801.5 1433.59C3804.47 1437.82 3805.96 1443.38 3805.96 1450.27C3805.96 1460.77 3802.2 1469.07 3794.68 1475.18C3787.32 1481.3 3777.37 1484.35 3764.84 1484.35Z" fill="black"/>
</svg>
